<svg xmlns="http://www.w3.org/2000/svg" width="192" height="192" viewBox="0 0 192 192">
<g>
<path d="M 0.00 96.00 L 0.00 0.00 L 96.00 0.00 L 192.00 0.00 L 192.00 96.00 L 192.00 192.00 L 96.00 192.00 L 0.00 192.00 L 0.00 96.00 ZM 102.47 139.58 C104.58,138.70 106.08,137.75 105.81,137.47 C105.53,137.20 103.68,137.65 101.69,138.49 C97.30,140.32 89.21,140.44 83.62,138.77 C81.24,138.06 77.51,135.61 74.76,132.95 C70.26,128.62 70.00,128.07 70.00,123.11 C70.00,118.63 70.43,117.41 72.92,114.92 C75.17,112.68 76.76,112.00 79.80,112.00 C86.87,112.00 90.01,113.17 94.23,117.39 L 98.36 121.50 L 96.40 118.00 C92.35,110.72 78.68,107.46 71.24,111.99 C62.83,117.12 61.77,126.89 68.81,134.34 C71.95,137.65 76.67,140.32 77.96,139.52 C78.46,139.22 79.15,139.43 79.50,140.00 C79.85,140.57 80.46,140.84 80.84,140.60 C81.23,140.36 83.11,140.55 85.02,141.04 C89.71,142.21 97.77,141.54 102.47,139.58 ZM 119.44 121.20 C119.33,110.16 115.34,105.98 95.64,96.25 C74.77,85.94 68.11,79.02 67.92,67.43 L 67.84 62.50 L 66.48 65.50 C62.67,73.90 64.14,82.47 69.91,85.45 C71.60,86.33 73.22,87.02 73.53,86.98 C73.83,86.95 74.76,87.62 75.61,88.46 C76.45,89.31 78.01,90.00 79.07,90.00 C80.13,90.00 81.00,90.45 81.00,91.00 C81.00,91.55 81.50,91.89 82.12,91.75 C82.73,91.61 83.37,92.29 83.53,93.25 C83.84,95.10 83.31,95.29 78.50,95.08 L 75.50 94.95 L 78.28 97.29 C83.10,101.34 101.09,109.76 97.71,106.38 C97.11,105.78 99.32,103.00 100.40,103.00 C100.70,103.00 101.67,104.39 102.55,106.09 C104.01,108.92 105.93,111.35 111.52,117.41 C112.63,118.61 114.41,121.71 115.47,124.30 C117.93,130.26 119.52,129.02 119.44,121.20 ZM 128.55 119.86 C130.84,112.97 129.95,106.34 125.56,97.43 C122.35,90.94 121.59,90.12 116.28,87.47 C113.10,85.89 110.10,84.71 109.60,84.84 C109.11,84.98 103.60,82.60 97.36,79.54 C88.05,74.97 85.54,73.26 83.37,69.98 C76.50,59.60 83.14,48.99 96.50,49.03 C107.50,49.06 115.27,54.84 118.63,65.48 C119.59,68.54 120.82,70.89 121.35,70.72 C122.55,70.32 122.84,55.00 121.64,55.00 C121.17,55.00 121.05,54.30 121.38,53.44 C122.50,50.53 108.43,46.03 98.12,46.01 C89.82,46.00 84.90,47.54 80.07,51.67 C73.04,57.69 70.82,69.86 75.59,76.26 C78.13,79.66 86.86,85.35 101.50,93.12 C117.04,101.36 123.29,107.25 124.94,115.22 C125.58,118.27 125.78,122.02 125.40,123.54 C124.20,128.33 126.71,125.40 128.55,119.86 ZM 94.22 105.15 C93.51,104.71 93.22,103.59 93.57,102.67 C94.52,100.21 95.50,100.64 95.50,103.50 C95.50,104.88 95.50,105.99 95.50,105.98 C95.50,105.98 94.92,105.60 94.22,105.15 ZM 84.57 94.33 C83.93,92.66 85.79,92.68 88.84,94.37 C91.17,95.66 91.17,95.67 88.13,95.67 C86.46,95.67 84.86,95.07 84.57,94.33 Z" fill="rgba(0,0,0,1)"/>
</g>
</svg>